<?xml version="1.0" encoding="UTF-8"?>
<svg version="1.1" xmlns="http://www.w3.org/2000/svg" width="512" height="533">
<path d="M0 0 C7.91863861 4.07804151 15.56332454 8.47144779 23.046875 13.30078125 C27.51923654 15.89806381 30.09517255 15.97287544 35.1015625 14.72265625 C36.17768799 14.46371582 37.25381348 14.20477539 38.36254883 13.93798828 C39.52036865 13.65552246 40.67818848 13.37305664 41.87109375 13.08203125 C79.56687348 4.38435951 117.29984201 4.4601269 154.82885742 14.02587891 C162.92084545 16.00910773 166.75787555 15.60740936 173.90625 11.36328125 C175.52085059 10.35497417 177.13405663 9.34443164 178.74609375 8.33203125 C194.23107712 -1.13953331 209.98987759 -8.8840172 227.68359375 -13.16796875 C228.47121094 -13.36648437 229.25882812 -13.565 230.0703125 -13.76953125 C234.04248005 -14.37515321 237.98311855 -14.43362468 241.99609375 -14.48046875 C242.81271484 -14.50947266 243.62933594 -14.53847656 244.47070312 -14.56835938 C251.60999054 -14.64231215 256.7332987 -12.92324429 261.98828125 -8.015625 C264.34212524 -4.06181793 265.56242838 -0.01693523 266.80859375 4.39453125 C267.06793701 5.29494141 267.32728027 6.19535156 267.59448242 7.12304688 C272.25719368 23.66056602 273.53314953 40.4763223 271.93359375 57.58203125 C271.8109314 58.90219238 271.8109314 58.90219238 271.68579102 60.24902344 C271.25148813 64.31667773 270.67392293 68.15729235 269.4921875 72.078125 C267.77067073 77.94161542 266.74470011 82.60788562 269.66015625 88.22265625 C271.98957601 92.13810887 274.59431635 95.85701919 277.19873047 99.59277344 C298.43124604 131.61260784 297.95703779 174.95393205 290.87109375 211.20703125 C285.96629554 234.72938667 277.23736419 255.3185142 261.68359375 273.83203125 C260.79607422 274.93998047 260.79607422 274.93998047 259.890625 276.0703125 C240.42588233 299.43630423 208.3066274 312.89279564 179.68359375 320.83203125 C179.68359375 325.0847472 181.54110781 328.21507993 183.296875 332.04296875 C187.99288449 344.02244874 188.14445738 355.82311427 188.1171875 368.484375 C188.12175826 370.35714404 188.12706647 372.22991141 188.1330719 374.10267639 C188.14194801 378.001545 188.13963865 381.9002081 188.12963867 385.79907227 C188.11808702 390.78795589 188.13848264 395.77613817 188.16755581 400.76492977 C188.18590724 404.62116463 188.18562864 408.47723044 188.17991829 412.333498 C188.17976531 414.17345739 188.18579001 416.0134284 188.19820976 417.85334587 C188.21311853 420.4208286 188.20244863 422.98700117 188.18530273 425.55444336 C188.1949707 426.30726089 188.20463867 427.06007843 188.21459961 427.83570862 C188.14283556 432.97795346 186.90198078 435.86017353 183.68359375 439.83203125 C178.93941099 444.11336691 175.28465473 445.20088824 169.03125 445.109375 C165.0361428 444.63740726 162.92549082 443.2475624 159.68359375 440.83203125 C155.39917242 435.3073827 154.53673583 431.14872965 154.54174805 424.33813477 C154.53653641 423.19596245 154.53653641 423.19596245 154.53121948 422.03071594 C154.52386657 420.37580152 154.51851871 418.72087726 154.51492882 417.06595039 C154.50774697 414.43694781 154.49206389 411.80813012 154.47358704 409.17918396 C154.42122485 401.70354884 154.37323286 394.22801149 154.35766602 386.75219727 C154.34751623 382.17735123 154.3180092 377.6029661 154.27634621 373.02830315 C154.26412267 371.29382776 154.25889895 369.55928698 154.26114464 367.82476997 C154.27354917 355.1068378 152.5724685 344.70375572 146.49609375 333.33203125 C142.40653841 325.62917259 141.45917391 318.58758439 143.296875 309.94921875 C145.48566109 303.026098 148.70902274 298.0345658 154.68359375 293.83203125 C159.64831894 291.27788039 164.94194965 289.69720939 170.24902344 288.02246094 C190.35279857 281.66689313 210.44509303 274.73108695 226.68359375 260.83203125 C227.93849609 259.86716797 227.93849609 259.86716797 229.21875 258.8828125 C250.14572662 241.47130263 257.77473855 211.35030445 260.16577148 185.44116211 C262.68502834 153.83288609 256.59094967 126.4871106 237.56640625 100.734375 C232.18472341 92.4385444 232.60566525 82.67977873 234.546875 73.29296875 C234.89872525 71.70043533 235.25692763 70.1092936 235.62109375 68.51953125 C239.27965354 52.42894097 239.91736034 35.94126827 235.68359375 19.83203125 C218.55154173 24.86725801 203.68549714 32.58210743 188.62109375 42.07421875 C177.05922226 48.99289185 167.3040711 51.2861314 154.0625 48.37109375 C153.00795876 48.1451503 153.00795876 48.1451503 151.93211365 47.91464233 C149.70168389 47.43649157 147.47370786 46.94812056 145.24609375 46.45703125 C129.21307101 42.92309103 113.53148247 40.43538777 97.05859375 40.51953125 C95.25938477 40.52799072 95.25938477 40.52799072 93.42382812 40.53662109 C75.56030087 40.77565345 58.54151103 43.81379289 41.171875 47.85009766 C22.71986268 52.06716902 10.82579478 46.06577118 -4.81225586 36.48168945 C-16.76007072 29.1720545 -28.74974735 23.51539058 -42.31640625 19.83203125 C-46.54396381 36.90643849 -46.03288195 54.65075494 -41.69140625 71.64453125 C-39.50580154 80.44299123 -38.48437278 90.09513586 -42.7890625 98.3828125 C-45.2309504 102.29857648 -47.85309278 106.090685 -50.45703125 109.89990234 C-70.34054239 139.43923361 -69.97464388 174.69120435 -63.47265625 208.48046875 C-60.18470113 223.732068 -53.24959114 237.17945339 -44.31640625 249.83203125 C-43.84976563 250.50492187 -43.383125 251.1778125 -42.90234375 251.87109375 C-28.3083233 270.76273985 -2.45685012 280.05610475 19.359375 287.00390625 C20.9676416 287.51642944 20.9676416 287.51642944 22.60839844 288.03930664 C24.63798172 288.67335402 26.67361827 289.28847066 28.71582031 289.88061523 C37.61359029 292.62818364 44.1837777 297.52467855 48.68359375 305.83203125 C52.2009695 314.80133942 51.42023884 323.3471088 47.8984375 332.1328125 C46.33479457 335.60701592 44.64580025 338.9973823 42.83203125 342.34765625 C40.17465251 348.09627149 39.3918164 353.57282776 39.42822266 359.84350586 C39.4246022 360.61196335 39.42098175 361.38042084 39.41725159 362.17216492 C39.41039538 363.82919573 39.40784501 365.48624894 39.40919876 367.14329338 C39.41017 369.77159068 39.39715195 372.39948572 39.38021851 375.02772522 C39.33412354 382.49623544 39.30934423 389.96470185 39.30273438 397.43334961 C39.29770585 402.01276302 39.27339274 406.59175277 39.23740768 411.17102242 C39.22764517 412.90881361 39.22525827 414.64666333 39.23057938 416.3844738 C39.23769029 418.8204942 39.22028806 421.25526011 39.19775391 423.69116211 C39.20592636 424.39946167 39.21409882 425.10776123 39.22251892 425.83752441 C39.13398533 431.25125845 37.59603471 435.35530131 34.68359375 439.83203125 C30.01667259 444.27129772 26.20610693 445.14418706 19.9609375 445.04296875 C15.05275142 444.58835117 11.98637859 442.3995925 8.87109375 438.76953125 C5.58512675 434.35694699 5.57111162 432.20506517 5.62109375 426.70703125 C5.63011719 425.42570312 5.63914063 424.144375 5.6484375 422.82421875 C5.66583984 421.34308594 5.66583984 421.34308594 5.68359375 419.83203125 C4.14251953 420.13947266 4.14251953 420.13947266 2.5703125 420.453125 C-34.2530806 427.67506 -71.25135621 423.23365373 -103.31640625 402.83203125 C-112.0143797 396.91000678 -119.71620338 390.06609296 -127.31640625 382.83203125 C-128.28513672 381.94257812 -128.28513672 381.94257812 -129.2734375 381.03515625 C-142.83182736 368.20707779 -164.10442296 341.58781407 -165.56640625 322.58203125 C-165.24643396 317.78244684 -164.28312008 313.86692449 -160.8515625 310.31640625 C-156.63344647 306.72739799 -154.08758048 305.63510594 -148.62890625 305.45703125 C-147.61441406 305.40804688 -146.59992188 305.3590625 -145.5546875 305.30859375 C-141.18642602 306.01468185 -138.3494045 307.71076079 -135.31640625 310.83203125 C-133.0480972 314.18229373 -131.25053354 317.71773538 -129.44140625 321.33203125 C-114.11033557 350.64009179 -92.5677284 375.20858445 -60.37890625 385.64453125 C-41.43452547 391.39167733 -23.03639688 390.31978836 -3.80078125 387.22094727 C-0.64364732 386.72671433 2.51951761 386.2793911 5.68359375 385.83203125 C5.66264648 384.79498047 5.64169922 383.75792969 5.62011719 382.68945312 C5.5465124 378.76072567 5.50136694 374.83205588 5.46386719 370.90283203 C5.44402099 369.21750571 5.41693482 367.53224564 5.38183594 365.84716797 C5.05870745 349.90933055 7.25150712 336.20885456 14.68359375 321.83203125 C10.36749367 320.19523717 6.04363596 318.5975068 1.6875 317.0703125 C-19.77003204 309.5110519 -38.8652737 300.67419049 -56.31640625 285.83203125 C-57.11304688 285.19265625 -57.9096875 284.55328125 -58.73046875 283.89453125 C-85.14639475 261.75546946 -96.84528628 226.09020403 -100.31640625 192.83203125 C-100.42726563 191.79046875 -100.538125 190.74890625 -100.65234375 189.67578125 C-103.40705946 158.40603541 -101.31708097 119.82819651 -80.52734375 94.1953125 C-75.79248109 88.43125726 -75.79248109 88.43125726 -74.31054688 81.34228516 C-74.96810861 75.38923028 -76.38955509 69.60093179 -77.72265625 63.77050781 C-82.02438396 42.48120079 -80.42543575 10.61714165 -68.31640625 -8.16796875 C-51.30028676 -25.18408824 -17.5809295 -8.89073621 0 0 Z " fill="#000000" transform="translate(191.31640625,57.16796875)"/>
</svg>
